# xmcd
#
# Track frame offsets:
#	150
#	19332
#	40482
#	63040
#	81217
#	98840
#	113087
#	134505
#	157102
#	162985
#	184350
#	199882
#	220115
#	236072
#	242992
#	255022
#	273355
#
# Disc length: 3889 seconds
#
# Revision: 1
# Processed by: cddbd v1.5PL3 Copyright (c) Steve Scherf et al.
# Submitted via: CDValet v3.40 - Copyright (c) 1996 - 1998 Greg Leichner
#
DISCID=f10f2f11
DTITLE=Various Artist - CMJ presents Certain Damage! Vol  99
DYEAR=1900
DGENRE=
TTITLE0=Placedo - Pure Morning
TTITLE1=Bis - Eurodisco
TTITLE2=New Radicals - You Get What You Give
TTITLE3=Kid Rock - Wasting Time
TTITLE4=Dig - Live in Sound
TTITLE5=The Interpreters - Shout (New Mix)
TTITLE6=Ekstasis - Heartland (Edit)
TTITLE7=Montauk P. - If I
TTITLE8=boat - Mo'el Gakusei
TTITLE9=Love Among Freaks - Wreck Yo Mind
TTITLE10=Boa Drape - Burning Heavy
TTITLE11=Secret Sauce - Nichiyobi
TTITLE12=Violet Says - Get Out (edit)
TTITLE13=Space Kung-Fu Man - Babel
TTITLE14=Fizzbin - Sleeping on a Beach
TTITLE15=Retsin - Lone Star Drive
TTITLE16=The Blacks - Horrorshow
EXTD=\nmdb\n
EXTT0=
EXTT1=
EXTT2=
EXTT3=
EXTT4=
EXTT5=
EXTT6=
EXTT7=
EXTT8=
EXTT9=
EXTT10=
EXTT11=
EXTT12=
EXTT13=
EXTT14=
EXTT15=
EXTT16=
PLAYORDER=
